<svg width="124" height="92" viewBox="0 0 124 92" fill="none" xmlns="http://www.w3.org/2000/svg">
<path d="M46.9811 91.9306C39.8705 91.9306 33.437 90.7878 27.6808 88.5023C21.9245 86.2167 16.9725 83 12.8246 78.8521C8.67669 74.7042 5.50229 69.8368 3.30138 64.2499C1.10046 58.5783 0 52.4411 0 45.8383C0 39.2356 1.14278 33.1831 3.42835 27.6808C5.79857 22.0938 9.14227 17.2264 13.4595 13.0785C17.7766 8.93065 22.8557 5.71392 28.6966 3.42835C34.6221 1.14278 41.0556 0 47.9969 0C52.9067 0 57.5201 0.634879 61.8373 1.90464C66.2391 3.1744 70.2177 4.90974 73.773 7.11066C77.3284 9.31157 80.3335 11.8511 82.7884 14.7292L69.7098 28.5696C67.5936 26.538 65.3926 24.845 63.1071 23.4906C60.9061 22.1362 58.5359 21.078 55.9964 20.3162C53.4569 19.4697 50.7481 19.0464 47.8699 19.0464C44.1453 19.0464 40.717 19.7236 37.5849 21.078C34.5375 22.4324 31.8286 24.3371 29.4584 26.7919C27.1729 29.1622 25.3952 31.998 24.1254 35.2993C22.8557 38.5161 22.2208 42.0291 22.2208 45.8383C22.2208 49.6476 22.898 53.2029 24.2524 56.5043C25.6068 59.8057 27.4691 62.6838 29.8394 65.1387C32.2096 67.5089 35.003 69.4136 38.2198 70.8526C41.5211 72.207 45.0341 72.8842 48.7588 72.8842C51.3829 72.8842 53.8378 72.461 56.1234 71.6145C58.4936 70.768 60.5252 69.6252 62.2182 68.1861C63.9112 66.7471 65.2657 65.054 66.2815 63.1071C67.2973 61.0755 68.1663 60.2105 68.1663 57.9249H66.956L58.3455 57.6471H52.2189H46.0923L46.8383 40.7593H87.8674C88.0367 41.6905 88.1637 42.9602 88.2483 44.5686C88.333 46.1769 88.3753 47.743 88.3753 49.2667C88.4599 50.7904 88.5023 51.9332 88.5023 52.695C88.5023 58.4513 87.4441 63.742 85.3279 68.567C83.2962 73.3075 80.4181 77.413 76.6935 80.8837C72.9689 84.3544 68.567 87.0632 63.488 89.0102C58.409 90.9571 52.9067 91.9306 46.9811 91.9306Z" fill="url(#paint0_radial_18_2)"/>
<path fill-rule="evenodd" clip-rule="evenodd" d="M91.8149 27.6421C96.844 19.9642 107.145 17.8169 114.823 22.8459L109.153 31.5019L108.664 31.4353C103.409 30.719 99.8564 36.6495 102.968 40.9448L96.6111 50.65C88.9332 45.621 86.7859 35.32 91.8149 27.6421ZM113.472 68.7296C108.538 76.4684 98.2636 78.7415 90.5248 73.8067L96.0883 65.082L96.5782 65.1427C101.842 65.7947 105.321 59.8212 102.157 55.5642L108.395 45.7821C116.134 50.7168 118.407 60.9908 113.472 68.7296Z" fill="#316571"/>
<rect x="36.704" y="40.672" width="87.296" height="17.856" fill="#ADA710"/>
<defs>
<radialGradient id="paint0_radial_18_2" cx="0" cy="0" r="1" gradientUnits="userSpaceOnUse" gradientTransform="translate(81.84 50.096) rotate(-36.2926) scale(39.3844 25.0807)">
<stop stop-color="#2A2C5A"/>
<stop offset="1" stop-color="#ADA710"/>
</radialGradient>
</defs>
</svg>
